<?xml version="1.0" encoding="UTF-8" standalone="no"?>
<!-- Created with Inkscape (http://www.inkscape.org/) -->

<svg
   width="512"
   height="512"
   viewBox="0 0 512 512"
   version="1.1"
   id="svg1"
   inkscape:version="1.4 (e7c3feb100, 2024-10-09)"
   sodipodi:docname="ava-new-year.svg"
   inkscape:export-filename="ava-new-year.png"
   inkscape:export-xdpi="96"
   inkscape:export-ydpi="96"
   xml:space="preserve"
   xmlns:inkscape="http://www.inkscape.org/namespaces/inkscape"
   xmlns:sodipodi="http://sodipodi.sourceforge.net/DTD/sodipodi-0.dtd"
   xmlns="http://www.w3.org/2000/svg"
   xmlns:svg="http://www.w3.org/2000/svg"><sodipodi:namedview
     id="namedview1"
     pagecolor="#505050"
     bordercolor="#eeeeee"
     borderopacity="1"
     inkscape:showpageshadow="0"
     inkscape:pageopacity="0"
     inkscape:pagecheckerboard="0"
     inkscape:deskcolor="#505050"
     inkscape:document-units="px"
     inkscape:zoom="5.6568544"
     inkscape:cx="261.09917"
     inkscape:cy="86.178637"
     inkscape:window-width="1920"
     inkscape:window-height="1029"
     inkscape:window-x="0"
     inkscape:window-y="27"
     inkscape:window-maximized="1"
     inkscape:current-layer="layer1"
     showguides="true" /><defs
     id="defs1"><inkscape:path-effect
       effect="bspline"
       id="path-effect13"
       is_visible="true"
       lpeversion="1.3"
       weight="33.333333"
       steps="2"
       helper_size="0"
       apply_no_weight="true"
       apply_with_weight="true"
       only_selected="false"
       uniform="false" /><inkscape:path-effect
       effect="bspline"
       id="path-effect12"
       is_visible="true"
       lpeversion="1.3"
       weight="33.333333"
       steps="2"
       helper_size="0"
       apply_no_weight="true"
       apply_with_weight="true"
       only_selected="false"
       uniform="false" /><inkscape:path-effect
       effect="spiro"
       id="path-effect11"
       is_visible="true"
       lpeversion="1" /><inkscape:path-effect
       effect="fillet_chamfer"
       id="path-effect10"
       is_visible="true"
       lpeversion="1"
       nodesatellites_param="F,0,0,1,0,0,0,1 @ F,0,0,1,0,0,0,1 @ F,0,0,1,0,0,0,1 @ F,0,0,1,0,0,0,1"
       radius="0"
       unit="px"
       method="auto"
       mode="F"
       chamfer_steps="1"
       flexible="false"
       use_knot_distance="true"
       apply_no_radius="true"
       apply_with_radius="true"
       only_selected="false"
       hide_knots="false" /><inkscape:path-effect
       effect="bspline"
       id="path-effect9"
       is_visible="true"
       lpeversion="1.3"
       weight="33.333333"
       steps="2"
       helper_size="0"
       apply_no_weight="true"
       apply_with_weight="true"
       only_selected="false"
       uniform="false" /><inkscape:path-effect
       effect="bspline"
       id="path-effect8"
       is_visible="true"
       lpeversion="1.3"
       weight="33.333333"
       steps="2"
       helper_size="0"
       apply_no_weight="true"
       apply_with_weight="true"
       only_selected="false"
       uniform="false" /><inkscape:path-effect
       effect="bspline"
       id="path-effect6"
       is_visible="true"
       lpeversion="1.3"
       weight="33.333333"
       steps="2"
       helper_size="0"
       apply_no_weight="true"
       apply_with_weight="true"
       only_selected="false"
       uniform="false" /><inkscape:path-effect
       effect="bspline"
       id="path-effect3"
       is_visible="true"
       lpeversion="1.3"
       weight="33.333333"
       steps="2"
       helper_size="0"
       apply_no_weight="true"
       apply_with_weight="true"
       only_selected="false"
       uniform="false" /><inkscape:path-effect
       effect="bspline"
       id="path-effect1"
       is_visible="true"
       lpeversion="1.3"
       weight="33.333333"
       steps="2"
       helper_size="0"
       apply_no_weight="true"
       apply_with_weight="true"
       only_selected="false"
       uniform="false" /><inkscape:path-effect
       effect="bspline"
       id="path-effect1-2"
       is_visible="true"
       lpeversion="1.3"
       weight="33.333333"
       steps="2"
       helper_size="0"
       apply_no_weight="true"
       apply_with_weight="true"
       only_selected="false"
       uniform="false" /></defs><g
     inkscape:label="Layer 1"
     inkscape:groupmode="layer"
     id="layer1"><path
       style="fill:#e4e000;stroke-width:1.13;fill-opacity:1"
       d="m 202.6636,253.705 c 1.1635,39.07076 6.25373,74.49545 14.53951,104.65232 8.28578,30.15686 19.76703,55.04562 35.6381,57.85827 15.87106,2.81265 36.13117,-16.45088 54.9022,-36.23802 18.77103,-19.78715 36.05265,-40.09758 52.91308,-46.49444 16.86044,-6.39686 33.29911,1.11984 31.06003,-2.65304 -2.23909,-3.77287 -23.15589,-18.83513 -54.28977,9.10347 -31.13388,27.9386 -72.4843,98.8779 -100.39938,55.24962 -27.91508,-43.62828 -42.39395,-201.82007 -9.87286,-275.5773 32.52108,-73.757224 112.03837,-63.073304 141.88204,-25.514717 29.84368,37.558587 10.01034,101.989307 -12.56016,146.471907 -22.57049,44.4826 -47.87763,69.01584 -60.67098,62.29247 -12.79336,-6.72338 -13.07258,-44.70316 -10.92721,-79.86354 2.14537,-35.16037 6.71531,-67.50082 7.84548,-84.47009 1.13017,-16.96927 -1.1794,-18.56714 -5.93627,15.96589 -4.75686,34.53304 -11.96052,105.19297 -4.92039,136.87998 7.04013,31.687 28.32317,24.39733 50.56606,-2.62683 22.2429,-27.02416 45.44351,-73.78077 53.41072,-114.84192 7.96721,-41.06115 0.70096,-76.426603 -23.30986,-95.960717 C 338.52312,58.4042 297.7703,54.70278 269.06123,65.885782 240.35216,77.068785 223.68951,103.13557 213.97642,137.52714 204.26333,171.9187 201.50009,214.63423 202.6636,253.705 Z"
       id="path2"
       inkscape:path-effect="#path-effect3"
       inkscape:original-d="m 198.7368,257.35053 c 5.09031,35.42523 10.18053,70.84992 15.27077,106.27473 11.48133,24.88892 22.96257,49.77768 34.44408,74.667 20.26062,-19.26402 40.52073,-38.52755 60.7811,-57.79133 17.28169,-20.31051 34.56331,-40.62094 51.84509,-60.93155 16.43909,7.51688 32.87776,15.03359 49.31701,22.55055 C 389.47743,327.05722 368.56063,311.99496 347.64352,296.93247 306.29287,367.87216 264.94245,438.81146 223.59159,509.7515 209.11228,351.5549 194.63342,193.36311 180.1539,35.164145 c 79.52169,10.684511 159.03898,21.368431 238.56028,32.05289 -19.83395,64.432715 -39.66729,128.863435 -59.50095,193.295195 -25.30733,24.53344 -50.61446,49.06669 -75.92196,73.60028 -0.27922,-37.98035 -0.55844,-75.96013 -0.83766,-113.94028 4.56996,-32.3406 9.1399,-64.68105 13.70986,-97.02168 -2.30962,-1.59791 -4.61919,-3.19578 -6.92885,-4.79372 -7.20407,70.66401 -14.40773,141.32394 -21.61182,211.98808 21.28435,-7.29013 42.56739,-14.57981 63.85178,-21.86994 23.2014,-46.75818 46.40201,-93.51479 69.6027,-140.27154 C 393.81101,132.83788 386.54476,97.472426 379.27827,62.105832 338.52312,58.4042 297.7703,54.702779 257.01534,51.001165 240.35216,77.068784 223.68951,103.13557 207.0266,129.20278 c -2.76327,42.71592 -5.52651,85.43145 -8.2898,128.14775 z"
       sodipodi:nodetypes="scccsccscccccccccccccs"
       transform="matrix(1.7569221,0,0,1.4104086,-254.09555,-79.397491)" /><g
       id="g3"
       transform="matrix(0.36749899,0,0,0.36749899,29.433365,21.157762)"
       style="display:inline"><circle
         style="fill:#cccccc;stroke-width:1.13"
         id="path3"
         cx="302.06107"
         cy="197.75221"
         r="86.924049" /><circle
         style="fill:#333333;stroke-width:1.13"
         id="circle3"
         cx="302.06107"
         cy="197.75221"
         r="76.924004" /><ellipse
         style="fill:#f9f9f9;stroke-width:0.702394"
         id="circle4"
         cx="197.75172"
         cy="-302.061"
         rx="63.318371"
         ry="36.107483"
         transform="rotate(90)" /></g><g
       id="g6"
       transform="matrix(0.36749899,0,0,0.36749899,308.14136,21.157762)"
       style="display:inline"><circle
         style="fill:#cccccc;stroke-width:1.13"
         id="circle5"
         cx="302.06107"
         cy="197.75221"
         r="86.924049" /><circle
         style="fill:#333333;stroke-width:1.13"
         id="circle6"
         cx="302.06107"
         cy="197.75221"
         r="76.924004" /><ellipse
         style="fill:#f9f9f9;stroke-width:0.702394"
         id="ellipse6"
         cx="197.75172"
         cy="-302.061"
         rx="63.318371"
         ry="36.107483"
         transform="rotate(90)" /></g><path
       style="fill:#808000;stroke-width:1.13"
       d="m 112.888,67.869999 c -6.47933,5.610001 -8.93062,12.005874 -9.22229,9.337928 -0.29167,-2.667946 1.57625,-14.399256 13.60116,-20.265265 12.02491,-5.86601 34.20536,-5.86601 46.6141,-2e-6 12.40875,5.866008 15.04431,17.597311 14.75263,20.265257 -0.29167,2.667945 -3.51063,-3.727979 -10.37373,-9.337924 -6.8631,-5.609946 -17.37032,-10.433894 -27.87786,-10.433896 -10.50755,-2e-6 -21.01467,4.8239 -27.49401,10.433902 z"
       id="path6"
       inkscape:path-effect="#path-effect6"
       inkscape:original-d="m 108.86,67.084 c -2.45133,6.396001 -4.90262,12.791872 -7.354,19.188 1.86804,-11.732019 3.73596,-23.463329 5.604,-35.195348 22.18178,0 44.36223,0 66.544,0 2.63572,11.732016 5.27128,23.463319 7.907,35.195348 -3.21907,-6.396138 -6.43803,-12.792062 -9.657,-19.188 -10.50723,-4.823953 -21.01445,-9.647901 -31.522,-14.472 -10.50754,4.824094 -21.01466,9.647999 -31.522,14.472 z"
       sodipodi:nodetypes="cccccccc"
       transform="translate(0,4.3003476)" /><path
       style="fill:#808000;stroke-width:1.13"
       d="m 112.888,67.869999 c -6.47933,5.610001 -8.93062,12.005874 -9.22229,9.337928 -0.29167,-2.667946 1.57625,-14.399256 13.60116,-20.265265 12.02491,-5.86601 34.20536,-5.86601 46.6141,-2e-6 12.40875,5.866008 15.04431,17.597311 14.75263,20.265257 -0.29167,2.667945 -3.51063,-3.727979 -10.37373,-9.337924 -6.8631,-5.609946 -17.37032,-10.433894 -27.87786,-10.433896 -10.50755,-2e-6 -21.01467,4.8239 -27.49401,10.433902 z"
       id="path7"
       inkscape:path-effect="#path-effect8"
       inkscape:original-d="m 108.86,67.084 c -2.45133,6.396001 -4.90262,12.791872 -7.354,19.188 1.86804,-11.732019 3.73596,-23.463329 5.604,-35.195348 22.18178,0 44.36223,0 66.544,0 2.63572,11.732016 5.27128,23.463319 7.907,35.195348 -3.21907,-6.396138 -6.43803,-12.792062 -9.657,-19.188 -10.50723,-4.823953 -21.01445,-9.647901 -31.522,-14.472 -10.50754,4.824094 -21.01466,9.647999 -31.522,14.472 z"
       sodipodi:nodetypes="cccccccc"
       transform="translate(278.70774,4.3003476)" /><path
       style="fill:#00ffff;fill-opacity:1;stroke-width:1.13"
       d="m 152.95871,57.187085 c 0,0 256.6929,-1.459982 256.6929,-1.459982 -4.63387,-6.447 -9.26765,-12.893868 -28.64383,-16.696939 C 361.63161,35.227092 327.51529,34.068152 301.45636,26.157748 275.39743,18.247345 257.39905,3.586443 233.99221,7.6328472 210.58537,11.679251 181.77233,34.432939 152.95871,57.187085 Z"
       id="path11"
       inkscape:path-effect="#path-effect12"
       inkscape:original-d="m 152.95871,57.187085 256.6929,-1.459982 c 0,0 -9.26765,-12.893869 -13.90162,-19.341 -34.11838,-1.159011 -68.2347,-2.317951 -102.35308,-3.476962 -17.99948,-14.661795 -35.99786,-29.3226991 -53.99734,-43.984494 -28.8142,22.754605 -86.44086,68.262438 -86.44086,68.262438 z"
       sodipodi:nodetypes="cccccc" /><path
       style="fill:#ff2a2a;fill-opacity:1;stroke-width:1.13"
       d="m 152.95468,57.185053 c 30.23166,-12.348492 60.46271,-24.696734 85.10458,-26.507718 24.64186,-1.810983 43.69218,6.915267 71.36126,12.84615 27.66908,5.930883 63.95431,9.065749 100.24028,12.200678 16.2294,-5.860757 32.4588,-11.721516 43.79971,-7.14701 11.34091,4.574506 17.79321,19.583963 18.71058,14.758221 0.91738,-4.825742 -3.7003,-29.486541 -54.78862,-44.558221 C 366.29414,3.7054721 268.73521,-1.7770749 216.91776,6.2225903 165.10032,14.222256 159.02756,35.703439 152.95468,57.185053 Z"
       id="path12"
       inkscape:path-effect="#path-effect13"
       inkscape:original-d="m 152.95468,57.185053 c 0,0 60.46271,-24.696735 90.69498,-37.045475 19.05146,8.726775 38.10178,17.453022 57.15324,26.179798 36.2867,3.134992 108.8579,9.404787 108.8579,9.404787 0,0 32.4588,-11.721515 48.68819,-17.582271 6.45243,15.009768 12.90473,30.019224 19.35729,45.029292 C 473.08847,58.509631 468.47079,33.848834 463.85312,9.1880219 366.29414,3.7054723 268.73521,-1.7770749 171.17332,-7.2597882 165.10032,14.222256 152.95468,57.185053 152.95468,57.185053 Z"
       sodipodi:nodetypes="ccccccccc" /></g></svg>
