<?xml version="1.0" encoding="UTF-8" standalone="no"?>
<!-- Created with Inkscape (http://www.inkscape.org/) -->

<svg
   width="512"
   height="512"
   viewBox="0 0 512 512"
   version="1.1"
   id="svg1"
   inkscape:version="1.4 (e7c3feb100, 2024-10-09)"
   sodipodi:docname="ava.svg"
   inkscape:export-filename="ava.png"
   inkscape:export-xdpi="96"
   inkscape:export-ydpi="96"
   xmlns:inkscape="http://www.inkscape.org/namespaces/inkscape"
   xmlns:sodipodi="http://sodipodi.sourceforge.net/DTD/sodipodi-0.dtd"
   xmlns="http://www.w3.org/2000/svg"
   xmlns:svg="http://www.w3.org/2000/svg">
  <sodipodi:namedview
     id="namedview1"
     pagecolor="#505050"
     bordercolor="#eeeeee"
     borderopacity="1"
     inkscape:showpageshadow="0"
     inkscape:pageopacity="0"
     inkscape:pagecheckerboard="0"
     inkscape:deskcolor="#505050"
     inkscape:document-units="px"
     inkscape:zoom="1.6269531"
     inkscape:cx="258.76591"
     inkscape:cy="300.86915"
     inkscape:window-width="1920"
     inkscape:window-height="1029"
     inkscape:window-x="0"
     inkscape:window-y="27"
     inkscape:window-maximized="1"
     inkscape:current-layer="layer1"
     showguides="false" />
  <defs
     id="defs1">
    <inkscape:path-effect
       effect="bspline"
       id="path-effect8"
       is_visible="true"
       lpeversion="1.3"
       weight="33.333333"
       steps="2"
       helper_size="0"
       apply_no_weight="true"
       apply_with_weight="true"
       only_selected="false"
       uniform="false" />
    <inkscape:path-effect
       effect="bspline"
       id="path-effect6"
       is_visible="true"
       lpeversion="1.3"
       weight="33.333333"
       steps="2"
       helper_size="0"
       apply_no_weight="true"
       apply_with_weight="true"
       only_selected="false"
       uniform="false" />
    <inkscape:path-effect
       effect="bspline"
       id="path-effect3"
       is_visible="true"
       lpeversion="1.3"
       weight="33.333333"
       steps="2"
       helper_size="0"
       apply_no_weight="true"
       apply_with_weight="true"
       only_selected="false"
       uniform="false" />
    <inkscape:path-effect
       effect="bspline"
       id="path-effect1"
       is_visible="true"
       lpeversion="1.3"
       weight="33.333333"
       steps="2"
       helper_size="0"
       apply_no_weight="true"
       apply_with_weight="true"
       only_selected="false"
       uniform="false" />
    <inkscape:path-effect
       effect="bspline"
       id="path-effect1-2"
       is_visible="true"
       lpeversion="1.3"
       weight="33.333333"
       steps="2"
       helper_size="0"
       apply_no_weight="true"
       apply_with_weight="true"
       only_selected="false"
       uniform="false" />
  </defs>
  <g
     inkscape:label="Layer 1"
     inkscape:groupmode="layer"
     id="layer1">
    <path
       style="fill:#ececec;stroke-width:1.13"
       d="m 201.907,252.75356 c 2.17267,62.6109 13.48736,153.65548 46.27634,165.70853 32.78899,12.05305 87.04955,-54.88686 119.06557,-86.3746 32.01601,-31.48774 41.78622,-27.52199 39.86636,-28.84283 -1.91986,-1.32084 -15.52967,-7.92818 -48.05913,26.59528 -32.52946,34.52346 -83.9781,110.17742 -117.25924,67.4388 -33.28113,-42.73862 -48.39378,-203.86573 -15.19544,-278.65229 33.19835,-74.786552 114.70387,-63.225915 140.97858,-23.463722 26.27471,39.762192 -2.68462,107.723302 -26.57822,154.161162 -23.89361,46.43785 -42.7209,71.35121 -55.63278,44.50706 -12.91189,-26.84416 -19.90795,-105.44507 -24.2972,-144.29274 -4.38925,-38.84767 -6.17165,-37.9418 -4.12996,-1.38655 2.0417,36.55525 7.90724,108.75601 19.03391,142.60188 11.12667,33.84587 27.51313,29.33301 46.98039,5.69115 19.46726,-23.64186 42.01363,-66.41113 53.43481,-107.84497 11.42119,-41.43384 11.71718,-81.53221 -9.45739,-105.388458 -21.17457,-23.856248 -63.81735,-31.46872 -92.93956,-22.330849 -29.1222,9.137871 -44.7212,35.025689 -56.00564,65.056917 -11.28445,30.03123 -18.25408,64.20534 -16.0814,126.81623 z"
       id="path2"
       inkscape:path-effect="#path-effect3"
       inkscape:original-d="m 192.76463,224.31711 c 11.31504,91.04735 22.62973,182.09193 33.94494,273.14064 54.26276,-66.94261 108.52332,-133.88252 162.785,-200.8238 9.77035,3.9658 19.54056,7.93155 29.31106,11.89741 -13.61022,-6.60754 -27.22003,-13.21488 -40.83005,-19.82232 -51.4489,75.65436 -102.89754,151.30832 -154.3467,226.96305 -15.11311,-161.13197 -30.22577,-322.25908 -45.3391,-483.393468 81.51003,11.561276 163.01555,23.121912 244.52518,34.683132 -28.96021,67.963166 -57.91954,135.924276 -86.8793,203.886406 -18.82745,24.91358 -37.65474,49.82694 -56.48235,74.74074 -6.99617,-78.60211 -13.99222,-157.20302 -20.9883,-235.80424 -1.78242,0.90588 -3.56482,1.81175 -5.34728,2.71765 5.86585,72.2046 11.73139,144.40536 17.59726,216.61024 16.38747,-4.51314 32.77393,-9.026 49.1614,-13.53914 22.54705,-42.77058 45.09341,-85.53985 67.63979,-128.30914 0.296,-40.09839 0.592,-80.19676 0.888,-120.296361 -42.64515,-7.612895 -85.28793,-15.225366 -127.93287,-22.838224 -15.59947,25.8886 -31.19847,51.776418 -46.7977,77.664615 -6.96966,34.17426 -13.93928,68.34837 -20.90898,102.52281 z"
       sodipodi:nodetypes="scsccsccccccccccccs"
       transform="matrix(1.7569221,0,0,1.4104086,-254.09555,-79.397491)" />
    <g
       id="g3"
       transform="matrix(0.36749899,0,0,0.36749899,29.433365,21.157762)">
      <circle
         style="fill:#cccccc;stroke-width:1.13"
         id="path3"
         cx="302.06107"
         cy="197.75221"
         r="86.924049" />
      <circle
         style="fill:#333333;stroke-width:1.13"
         id="circle3"
         cx="302.06107"
         cy="197.75221"
         r="76.924004" />
      <ellipse
         style="fill:#f9f9f9;stroke-width:0.702394"
         id="circle4"
         cx="197.75172"
         cy="-302.061"
         rx="63.318371"
         ry="36.107483"
         transform="rotate(90)" />
    </g>
    <g
       id="g6"
       transform="matrix(0.36749899,0,0,0.36749899,294.64136,21.157762)">
      <circle
         style="fill:#cccccc;stroke-width:1.13"
         id="circle5"
         cx="302.06107"
         cy="197.75221"
         r="86.924049" />
      <circle
         style="fill:#333333;stroke-width:1.13"
         id="circle6"
         cx="302.06107"
         cy="197.75221"
         r="76.924004" />
      <ellipse
         style="fill:#f9f9f9;stroke-width:0.702394"
         id="ellipse6"
         cx="197.75172"
         cy="-302.061"
         rx="63.318371"
         ry="36.107483"
         transform="rotate(90)" />
      <text
         xml:space="preserve"
         style="font-size:87.0751px;font-family:Serif;-inkscape-font-specification:Serif;text-align:start;writing-mode:lr-tb;direction:ltr;text-anchor:start;fill:#e6e6e6;stroke-width:3.07484"
         x="-158.66544"
         y="77.033104"
         id="text8"><tspan
           sodipodi:role="line"
           id="tspan8"
           style="font-style:normal;font-variant:normal;font-weight:normal;font-stretch:normal;font-size:87.0751px;font-family:'URW Gothic';-inkscape-font-specification:'URW Gothic';fill:#00ffff;stroke-width:3.07484"
           x="-158.66544"
           y="77.033104">K142</tspan></text>
    </g>
    <path
       style="fill:#808000;stroke-width:1.13"
       d="m 112.888,67.869999 c -6.47933,5.610001 -8.93062,12.005874 -9.22229,9.337928 -0.29167,-2.667946 1.57625,-14.399256 13.60116,-20.265265 12.02491,-5.86601 34.20536,-5.86601 46.6141,-2e-6 12.40875,5.866008 15.04431,17.597311 14.75263,20.265257 -0.29167,2.667945 -3.51063,-3.727979 -10.37373,-9.337924 -6.8631,-5.609946 -17.37032,-10.433894 -27.87786,-10.433896 -10.50755,-2e-6 -21.01467,4.8239 -27.49401,10.433902 z"
       id="path6"
       inkscape:path-effect="#path-effect6"
       inkscape:original-d="m 108.86,67.084 c -2.45133,6.396001 -4.90262,12.791872 -7.354,19.188 1.86804,-11.732019 3.73596,-23.463329 5.604,-35.195348 22.18178,0 44.36223,0 66.544,0 2.63572,11.732016 5.27128,23.463319 7.907,35.195348 -3.21907,-6.396138 -6.43803,-12.792062 -9.657,-19.188 -10.50723,-4.823953 -21.01445,-9.647901 -31.522,-14.472 -10.50754,4.824094 -21.01466,9.647999 -31.522,14.472 z"
       sodipodi:nodetypes="cccccccc"
       transform="translate(0,4.3003476)" />
    <path
       style="fill:#808000;stroke-width:1.13"
       d="m 112.888,67.869999 c -6.47933,5.610001 -8.93062,12.005874 -9.22229,9.337928 -0.29167,-2.667946 1.57625,-14.399256 13.60116,-20.265265 12.02491,-5.86601 34.20536,-5.86601 46.6141,-2e-6 12.40875,5.866008 15.04431,17.597311 14.75263,20.265257 -0.29167,2.667945 -3.51063,-3.727979 -10.37373,-9.337924 -6.8631,-5.609946 -17.37032,-10.433894 -27.87786,-10.433896 -10.50755,-2e-6 -21.01467,4.8239 -27.49401,10.433902 z"
       id="path7"
       inkscape:path-effect="#path-effect8"
       inkscape:original-d="m 108.86,67.084 c -2.45133,6.396001 -4.90262,12.791872 -7.354,19.188 1.86804,-11.732019 3.73596,-23.463329 5.604,-35.195348 22.18178,0 44.36223,0 66.544,0 2.63572,11.732016 5.27128,23.463319 7.907,35.195348 -3.21907,-6.396138 -6.43803,-12.792062 -9.657,-19.188 -10.50723,-4.823953 -21.01445,-9.647901 -31.522,-14.472 -10.50754,4.824094 -21.01466,9.647999 -31.522,14.472 z"
       sodipodi:nodetypes="cccccccc"
       transform="translate(265.20774,4.3003476)" />
  </g>
</svg>
